<svg viewBox="0 0 147 121" fill="none" xmlns="http://www.w3.org/2000/svg">
	<path d="M1 62.8c.5-2.4 1.5-4.1 2.6-5.4a51.2 51.2 0 0 1 21.6-13.6 144.6 144.6 0 0 0 38-26.3c-.5-1 .7-3 3.7-6A34.7 34.7 0 0 1 91.8 0c2.1 0 4.2.2 6.3.6 5.6 1.1 11 4.5 14.2 11.6a55.3 55.3 0 0 0 16.9 22s-5.4 1 10.5 23c5.5 7.6 6.6 13.4 5.3 17.9a16 16 0 0 1-2.9 5.5 23.6 23.6 0 0 1-16.7 9.2l-4.3.2a31 31 0 0 0-3.1.9c-5 2-65.6 7.4-98.1-7-5-1.4-13-4.5-16.9-10.2-2.2-3.2-3-6.9-2-11Zm66.3-50.9c-3 3.1-3.6 4.5-3.6 5.2 6.6-6 12-11 15.5-13 2.3-1.3 5.1-2.5 8.2-3.2-5.7.9-12.8 3.7-20 11Zm58 77.3c7.9-.7 12.6-4.4 15.3-7.7-4.7 4.2-12 6.4-17 7.8l1.7-.1ZM3.5 73.4A27 27 0 0 0 15.7 82a39.1 39.1 0 0 1-8.5-6.1 18.5 18.5 0 0 1-6-9.6c0 2.6.8 5 2.3 7.2Z" fill="#FF9092"/>
	<path d="M2.4 22.9A29.8 29.8 0 0 1 15.8 7.3c6.6-3.9 13.6-6 20.8-6.3 5.2-.2 10.5.2 15.9 1.7C73.4 8.3 90 28.2 105.9 24.3a43.4 43.4 0 0 1 20-.7c6.3 1.1 14.7 4.4 18.7 13.5A28.5 28.5 0 0 1 144 61c-1 2-2 4-3.4 5.8A60.9 60.9 0 0 1 118.8 85C101 95.3 45.3 97.8 26.3 83.8a64.6 64.6 0 0 1-22-30.5C3 49.8 1.7 45.3 1 40.5.1 34 .6 28 2.4 23Zm142.8 28.6c.1 2.4-.1 4.8-.7 7.1 2-5.4 3.2-12.9-.5-21.3a22.4 22.4 0 0 0-16-12.6c9.5 3.4 16.3 12 17.2 26.8ZM1.6 40.5 2 43C.3 27 7.4 11.5 29.7 3.6a37 37 0 0 1 11.1-2.2c-7.4-.3-16 1.2-24.6 6.4C1.6 16.4.2 30.3 1.6 40.4Z" fill="#FFD2D3"/>
	<path d="m87 71.5 18.5 14.3A44.5 44.5 0 0 0 137 61.5c-1.6-.7-8.4-4.4-6.8-8.7 1.4-3.8 7.8-3 10.4-2.6.6-3.3 1-6.7 1-10-2.8-.5-6.5-1.7-6.9-4.8-.4-3.3 4.8-3.2 7.7-4.1-.5-4.6-2-11.7-3.2-14-.5-1.1-2.1-1.4-3.3-1.3-5.3.8-10.2 3.3-14.4 5.2 1.4 2.4 4.3 7 1.5 9.3-3.7 3.1-10-2.1-11-3a55.1 55.1 0 0 0-7.7 7c1.6 1.5 6.5 6.3 4 9.9-2.6 3.5-9.1.7-11.2-.3l-1.5 2.7-.3.5C88.6 59.9 87 71.5 87 71.5Z" fill="#4FB1D4"/>
	<path d="m107.4 65.2.2-.3c0-2.1-.3-4.3-1-6.3a19.6 19.6 0 0 0-11.2-11.3c0-.2.2-.3.3-.5a20.1 20.1 0 0 1 11.5 11.7c.6 1.7.9 3.4 1 5.2 3.2-6.1 6.6-12 9.9-17.5-.3-1-3.3-11.4-9.6-15.8l.5-.4c5.8 4.2 8.8 13 9.5 15.4 2.8-4.7 5.6-9 8.2-13 0-.1 2.2-6.5 1.3-14l.6-.3c.7 5.3-.2 10.1-.8 12.6 4.1-6.2 7.6-11.3 10-14.6l.6.3a419 419 0 0 0-10 14.4 43 43 0 0 1 12.9-6.9l.1.6a41.3 41.3 0 0 0-14.1 8.1c-2.5 3.8-5.2 8-8 12.6 3.9-2.3 9-3 14.7-2.2 2.6.3 5 1 7.5 1.8v.6c-3.4-1.2-15-4.7-22.9 1-3.4 5.8-7 12-10.4 18.6v.2c7.3-4.1 14.9-3.9 20-2.9 2.5.5 5 1.3 7.3 2.2l-.3.6c-2.2-1-4.6-1.7-7-2.2-5.3-1-13.2-1.3-20.6 3.3-2.6 5-5.1 10.3-7.4 15.5l-.5-.4C102 76.1 104.4 71 107 66l.4-.8Z" fill="#3094BF"/>
	<path d="M4.1 33c0 1.6 1.8 3.3 3.7 3.7 2.6.5 5.1 2.5 3 5.3-1.2 1.5-2.5 2.8-3 4.1l-.1.6c-.1.8.2 1.7 1.2 2.7 2.4 2.3 7.6 1.2 7.2 4.5-.3 3-4.1 3.2-4 5.3a2 2 0 0 0 .1.7c1.6 3.9 6.5.6 7.5 3.4 1 2.5-5.4 3.5-3.4 7 2 3.4 6.3-1 7.7 1.4 1.8 3-4 5-.7 7.8 2 1.6 6.4.7 11.9-4.7s8.4-6 8.4-6 1.3-1.3 5.9-2.6a56.5 56.5 0 0 1 3.9-1c7.7-1.5 10.9-4.5 10.5-7-.6-4.1-5.6-.6-7.3-3.5-1.4-2.5 4.8-3.6 2.8-7-2-3.5-6.2 1.1-8-1-2-2.3 3.5-4.5 1-7.7v-.1l-.4-.4c-1.8-1.5-4.1 1.6-7 .3-3.2-1.4.6-5.1-.2-8.2-.3-1.3-1-2-1.7-2.4l-.6-.2c-1.5-.4-3.3 0-5.4.2-3.5.2-4-2.9-3-5.3.5-1.5.2-3.4-.8-4.5l-.5-.4c-1-.6-2.5-.5-4.4.8-4.3 3-7.2 3.5-9.3-.6a9.6 9.6 0 0 0-1.3-2c-1.7-2-3.8-1.8-5.1-1.2a4.7 4.7 0 0 0-.5.2c-1 .6-2 1.7-2 3.4l.1.6c.1.8.5 1.8 1.2 3 2.6 3.8.7 6-4.3 7.8-1.8.6-2.7 1.5-3 2.3l-.1.6Z" fill="#4FB1D4"/>
	<path d="m50.1 66-6.3-5.5c.3-1.8 2.5-17 8.6-21.5l-.4-.5C46 43 43.7 56.8 43.3 60c-3.5-3.3-6.8-6.8-10-10.4-2-6.4 6.7-17.6 9.8-21.4l-.6-.2c-3.1 3.7-10.9 14-10 20.6a124 124 0 0 1-9.8-13.4c.3-5.8 7.9-14 10.6-16.8l-.5-.4c-2.7 2.7-9.8 10.4-10.6 16.4a92.7 92.7 0 0 1-6.4-11.8 20 20 0 0 1 2.4-5.8l-.4-.5c-.8 1.4-2 3.7-2.5 5.4a78.9 78.9 0 0 1-2.6-6.7l-.5.2c.3 1.2.9 2.7 1.6 4.4l-3.6-1v.6c2.2.7 3.4 1 3.9 1a95.5 95.5 0 0 0 6.1 12.2c-2-.3-8.9-1-16 0l-.1.5c7.8-1 15.4 0 16.5.1l.3.5a93.7 93.7 0 0 0 1.2 2C24.5 39 27 42.7 29.7 46a95.8 95.8 0 0 0-21.9 0l-.1.6c8.3-1.5 21-.2 22.5 0A144.5 144.5 0 0 0 40.5 58c-2 0-8-.2-14 0a79 79 0 0 0-14.4 1l.1.6c6-1.3 22-1.2 28.9-1a141.8 141.8 0 0 0 8.4 7.5l.6-.2Z" fill="#3094BF"/>
	<path d="M108.6 31.3c10.5-.7 13.4 7.5 14.1 10.8 1.7 3 2.8 6.4 3.5 9.8l1-4c-3.3-8.4 1.4-14 1.4-14 3.8 6.7.7 12.2-.6 14-.4 2-1 3.9-1.6 5.7l.1.9v.2c.3 2 .3 4 .2 6 .7-.7 1.3-1.5 1.9-2.4 1-8.8 8-11.9 8-11.9 0 7.7-5.3 11.3-7.3 12.3a24.4 24.4 0 0 1-2.7 3.3 42.9 42.9 0 0 1-2.9 12.1l1.9-1c4-8 11.6-8.6 11.6-8.6a13.9 13.9 0 0 1-11.1 9.2l-2.8 1.5a38.1 38.1 0 0 1-1.5 3.1.4.4 0 0 1-.4 0l-.2-.2v-.3l.2-.4c0-1-.3-2-.5-2.9a13 13 0 0 1-5.3-13.2s6.2 3.9 6 12.7l.4 2a46.6 46.6 0 0 0 3.3-10.8c0-.2 0-1.5-1.5-3-2.3-.5-8.5-2.5-10.5-10 0 0 7.5 1.2 11 9.4.5.5 1 1.1 1.3 1.8.4-3 .4-5.9.1-8.8-.1-.6-1-3.2-3.6-5-2.1 0-8.9-.8-12.4-8 0 0 7.4-.1 12.5 7.1a10 10 0 0 1 3.1 3.1c-.5-3-1.5-5.8-2.9-8.5-9-2.4-13.8-12-13.8-12ZM27 75.2 24 73.7c-2.3-.3-8.6-2-11.1-9.2 0 0 7.5.6 11.7 8.6l1.8 1a47.7 47.7 0 0 1-3-12.2c-.9-1-1.8-2-2.5-3.2-2-1-7.5-4.6-7.3-12.3 0 0 6.9 3 8 12l1.8 2.4a38.1 38.1 0 0 1 .2-6.2v-1c-.6-1.8-1-3.7-1.5-5.7a12.8 12.8 0 0 1-.6-14s4.7 5.6 1.4 14l1 4c.7-3.4 1.8-6.7 3.5-9.8.7-3.2 3.6-11.5 14-10.8 0 0-4.8 9.6-13.7 12a31.7 31.7 0 0 0-3 8.5 10 10 0 0 1 3.3-3c5-7.3 12.5-7.2 12.5-7.2-3.6 7.2-10.4 8-12.5 8a9.6 9.6 0 0 0-3.6 5c-.3 3-.3 5.9.1 8.8.3-.7.8-1.3 1.3-1.8 3.5-8.2 11-9.4 11-9.4-2 7.5-8.2 9.5-10.5 10-1.4 1.5-1.5 2.8-1.5 3l.2 1.2c.7 3.3 1.7 6.6 3 9.7l.6-2.1c-.3-8.8 6-12.7 6-12.7a13 13 0 0 1-5.4 13.2l-.5 3a27 27 0 0 0 .2.6s0 .2-.2.2h-.4l-.1-.1-.3-.5-1-2.5Z" fill="#88DFED"/>
	<path d="M97.6 106.5c27.4-4.8 39-25.7 36.8-28.8a.8.8 0 0 0-.2-.1l-.3-.3h-.1c-1.6-.8-3.7 1-4.7 1.8 3.2-3.5 7.4-16.5 5-17.7l-.2-.1a2.1 2.1 0 0 0-.6-.2c-1.6-.2-3.6 1.3-5 4.3-1.7 3.6-6 9.9-6 9.9s2.3-8.5 0-9.1h-.1a4 4 0 0 0-.8-.1c-1.2 0-2.2 1.7-5.8 9.4a44.1 44.1 0 0 1-11.4 15l-4 10-.4.7-2.2 5.3Z" fill="#3094BF"/>
	<path d="M101 99.5a43.7 43.7 0 0 0 6-3.3c1.8-1.2 3.5-2.5 5.2-3.9 7.1-13 9-22.8 9.4-26.2a2.7 2.7 0 0 1 .6 0 77 77 0 0 1-8.7 25.1A71 71 0 0 0 126 75.7c4-6.3 6.3-12 7.2-14.6l.6.2c-1 2.5-3.3 8.3-7.3 14.7a70.4 70.4 0 0 1-18.3 20c7.5-1 14-6 18.3-10.2a64 64 0 0 0 7.3-8.5 1.7 1.7 0 0 1 .4.3 64 64 0 0 1-7.3 8.6 34 34 0 0 1-19.8 10.5 44.1 44.1 0 0 1-6.3 3.3v-.5Z" fill="#4FB1D4"/>
	<path d="M53 106.6c-27.4-4.8-39-25.7-36.8-28.8l.1-.1.3-.3h.2c1.5-.8 3.7 1 4.6 1.8-3.1-3.5-7.3-16.5-5-17.8h.3a2.1 2.1 0 0 1 .6-.2c1.6-.2 3.6 1.2 5 4.3 1.7 3.6 6 9.8 6 9.8s-2.3-8.5 0-9a4.8 4.8 0 0 1 .7-.2h.2c1.2.1 2.2 1.7 5.8 9.5a44 44 0 0 0 11.3 15l4.1 10 .4.7 2.2 5.3Z" fill="#3094BF"/>
	<path d="M49.6 99.5a43.7 43.7 0 0 1-6-3.2 50 50 0 0 1-5.2-3.9c-7.1-13-9-22.8-9.4-26.3a2.6 2.6 0 0 0-.6.1 77 77 0 0 0 8.7 25 71 71 0 0 1-12.6-15.4c-4-6.3-6.3-12-7.2-14.6l-.6.1c1 2.6 3.3 8.4 7.2 14.8a70.4 70.4 0 0 0 18.4 20c-7.5-1-14-6-18.3-10.2a63.9 63.9 0 0 1-7.4-8.5 1.8 1.8 0 0 0-.3.3c2.1 3 4.6 5.9 7.2 8.5a34 34 0 0 0 19.9 10.6 44.4 44.4 0 0 0 6.3 3.2.3.3 0 0 0 0-.4h-.1Z" fill="#4FB1D4"/>
	<path d="m78.5 117.4 2 .7L79 121s-2.7-2.5-2.4-3.9c.3-1.4 1.8.3 1.8.3Z" fill="#9C0E36"/>
	<path d="M31.2 69.7a7.2 7.2 0 0 1 .2-.5c2-4.6 6.2-8.7 11-12 2.2-1.4 3.9-2.9 4.9-4.6 1.3-2.2 2.2-6 2.7-12.5.7-8.9 5.6-13.2 9.6-15.2a22 22 0 0 1 8.7-2.4C75.8 22 82 27.4 82 27.4c10.3-1.5 10.6 5.3 12 12.7 1 4.9 4.3 12.8 15.3 19.4 5.3 3.2 8.1 10 7.3 17.3A17.8 17.8 0 0 1 104.7 92h-.2a.3.3 0 0 1 .1-.5c5.3-1.8 9.1-6.1 10.7-11.7-6.8 18.3-51.4 24.7-71.5 12.6h-.1c-5.3-1.9-9.1-4.8-11.3-8.6a18.8 18.8 0 0 1-2-6.4c-.5-2.8-.2-5.4.8-7.8Zm70.6-15A31 31 0 0 1 94.4 44l1 3.9c1.2 3 3.6 4.9 6.4 6.8Zm-45-26.2c1.3-1.5 2.7-2.7 4-3.6l-.9.5A17 17 0 0 0 50.6 40c-.3 3.7-.7 6.5-1.3 8.6 2.4-6.3 1.4-13.5 7.5-20.2ZM33 83.6c1.7 3 4.4 5.4 8 7.2a28.4 28.4 0 0 1-9-9.3c.3.7.6 1.5 1 2.1Z" fill="#34104C"/>
	<path d="M65 111.3s-4.6-1.2-5.4-.3c-.8 1 7.2 5.4 9.3 6.4 2.1 1 12.3 1.1 12.3 1.1l-2.2-7H68l-3-.2Z" fill="#FBCDA8"/>
	<path d="M43 81.8c-1.8 12.6 28.2 7.4 28.2 7.4l3.6 20.3.3 1.3s.7.4 1.5 1.4l1 1.3c.9 1.6 1.7 4 1.5 7.5 0 0 35-8.7 25-42.3-.3-1.4-1-3-2.2-4.7-1.3-2-2.9-3.7-4.7-5.2-6.6-5.4-18.2-9.6-36.9-5.4C57.3 64 45 68 43 81.8Z" fill="#FF9092"/>
	<path d="m74.5 104.4 2 7.8c.4.4.8.8 1 1.3 1 1.6 1.8 4 1.6 7.5 0 0 35-8.7 25-42.3-.3-1.4-1-3-2.2-4.7-1.3-2-2.9-3.7-4.7-5.2L76.7 78l-2.2 26.4Z" fill="#F96E75"/>
	<path d="M62.6 62c-.3 2.2-2 4.5-1 6.1 1.1 1.8 3.5 3.2 7.2 2.7 7.6-1 4.3-5.3 3.3-6.7-.7-1-.8-2.2-.8-3V60c.2 0 8.6 3.1 13.1-7.9 4.3-10.3-3.9-19.3-3.9-19.3l-16 7.2-.3 6.8s-2-5.8-4-1.4c-2 4.5 2.6 7 2.6 7s.7 2.2-.2 9.7Z" fill="#FBCDA8"/>
	<path d="M84.9 35.8s-1.6 5.7-10.5 7.4c-6.6 1.2-9.6 7.2-9.6 7.2s-3-5-2.8-8.3c.3-3.2 18.3-10 18.3-10l4.6 3.7Z" fill="#34104C"/>
	<path d="M65.3 78s-7.6 3.7-8.6 7.2c-.7 2.4.4 6.6.4 6.6s4.9-.2 4.9-.8c0-.6 3.3-13 3.3-13Z" fill="#F96E75"/>
	<path d="M95.5 89s2-4 3.3-4c1.3 0-.6 8.7-1.3 10.8-.7 2.1-7.4 9.4-7.4 9.4l-4-6.3 7.5-7.6 1.9-2.3Z" fill="#FBCDA8"/>
	<path d="M67.8 76.8C79.6 72 77 70 81.3 63.3A10.7 10.7 0 0 1 92.9 58c1.1.2 11.4 2.3 8.7 18.7-2.8 16.3-19.9 27.8-30.2 26.5-10.4-1.2-10.9-7.5-10.9-7.5-4.8-2.8-3.9-14.5 7.3-19Z" fill="#4FB1D4"/>
	<path d="M96.6 65.3s-1.8-2.1-2.6-2.7c-1.4-.9-2.7-1-4.4-1l-1.4.2a7.7 7.7 0 0 0-6 5.9c-1.1 5 .3 8.3 2.3 9.7-6.3.7-9.7 6.1-9.7 6.1A18.2 18.2 0 0 1 87 78.2c2.4 0 6-.4 9.1-5.2 2-3 1.5-5.7.5-7.7Z" fill="#3094BF"/>
	<path d="M85.5 76.7c1.9 1 6.6 1.7 10.5-4.3 1.8-2.9 1.6-5.4.6-7.3a6.8 6.8 0 0 0-6.8-3.7c-.5 0-1 0-1.4.2-2.7.6-5.1 2.6-5.8 5.7-1.1 5.2.8 8.4 3 9.4ZM87.2 96.9s2-3.4 4.1-5c2-1.5 3.3-4 4.4-3.5 1 .5-2 5.7-2 5.7l-5.2 5.6-1.7-2.4.4-.4Z" fill="#FBCDA8"/>
	<path d="m43 81.8 14 .8s-1.3 27 30.6 13.7c0 0 5.3 2.9 5.5 12.5 0 0-54.5 20.2-50.1-27Z" fill="#FF9092"/>
	<path d="M65.4 111c.5-1 3 .4 5.7.5 1.7 0 4 .8 5.4 1.3.3.8.5 1.7.5 2.6l.3.6-6.9-1.4s-5.6-2.6-5-3.6Z" fill="#FBCDA8"/>
	<path d="M67.1 57.3s1 2.6 4.2 3.8V60s-2.1-.8-4.2-2.7Z" fill="#ECA470"/>
</svg>